# xmcd
#
# Track frame offsets:
#	150
#	15249
#	32295
#	47964
#	64899
#	79287
#	94193
#	107104
#	121553
#	137806
#	152625
#	166583
#	183007
#	200070
#	211612
#	226280
#	239714
#	253714
#	268177
#	282953
#
# Disc length: 3973 seconds
#
# Revision: 1
# Processed by: cddbd v1.5.2PL0 Copyright (c) Steve Scherf et al.
# Submitted via: EZCDAudioConverter 7.1.0.1
#
DISCID=0b0f8314
DTITLE=Nu Country Traxx Volume 245 US
DYEAR=2019
DGENRE=country
TTITLE0=Eric Church - Monsters
TTITLE1=Luke Combs - Even Though I'm Leaving
TTITLE2=Blake Shelton ft. Trace Adkins - Hell Right
TTITLE3=The Band Steele - Waitin' On Sunshine
TTITLE4=Chris Young - Drowning
TTITLE5=Bobby Wills - It Matters To Her
TTITLE6=The Heels - Take The Trailer
TTITLE7=Trea Landon - Loved By A Country Boy
TTITLE8=Rodney Atkins - Thank God For You
TTITLE9=Maren Morris - The Bones
TTITLE10=David James - All The Time
TTITLE11=Joe Diffie - As Long As There's A Bar
TTITLE12=AJ Sanders - Chevy And Daddy
TTITLE13=Jason Pritchett - American Made
TTITLE14=Jessie G - Whatever This Is
TTITLE15=Alexis Ebert - Trailer Trashed
TTITLE16=Brooke McBride - One More
TTITLE17=Presley and Taylor - Everybody Wanna Be Us
TTITLE18=Zach Stone - Hands On
TTITLE19=Don Amero - Music Lover
EXTD=
EXTT0=
EXTT1=
EXTT2=
EXTT3=
EXTT4=
EXTT5=
EXTT6=
EXTT7=
EXTT8=
EXTT9=
EXTT10=
EXTT11=
EXTT12=
EXTT13=
EXTT14=
EXTT15=
EXTT16=
EXTT17=
EXTT18=
EXTT19=
PLAYORDER=
